<?xml version="1.0" encoding="UTF-8" standalone="no"?><!DOCTYPE svg PUBLIC "-//W3C//DTD SVG 1.1//EN" "http://www.w3.org/Graphics/SVG/1.1/DTD/svg11.dtd"><svg width="100%" height="100%" viewBox="0 0 909 363" version="1.1" xmlns="http://www.w3.org/2000/svg" xmlns:xlink="http://www.w3.org/1999/xlink" xml:space="preserve" xmlns:serif="http://www.serif.com/" style="fill-rule:evenodd;clip-rule:evenodd;stroke-linejoin:round;stroke-miterlimit:2;"><g><path d="M564.876,123.242c-2.906,2.179 -11.259,11.985 -18.886,21.065c-10.169,13.075 -14.891,16.344 -21.428,15.254c-10.896,-2.179 -33.414,13.075 -34.867,23.608c-1.453,9.443 5.811,10.533 21.065,2.542c9.443,-5.085 10.533,-5.085 8.717,0c-4.722,11.622 27.966,1.816 41.767,-13.075c6.174,-6.537 7.627,-6.901 7.627,-2.179c0,2.906 -1.816,6.901 -3.632,7.99c-8.717,5.448 2.179,9.08 22.881,7.264c42.131,-2.906 44.31,-2.906 45.399,7.264c0.726,9.08 -19.612,42.131 -27.24,44.673c-9.806,2.906 -3.995,-13.438 10.533,-30.145c8.353,-9.806 13.438,-16.707 11.259,-15.981c-2.179,0.726 -9.806,8.717 -17.07,17.07c-14.891,18.16 -17.433,33.414 -5.811,33.414c7.99,0 25.787,-24.334 33.414,-45.762c2.179,-6.537 7.99,-13.438 12.712,-15.617c11.622,-5.448 11.985,-5.085 11.985,3.632c0,6.537 1.453,7.264 10.169,5.448c5.448,-1.453 13.438,-2.542 18.16,-2.542c4.722,0.363 11.622,-1.453 15.254,-3.269c4.722,-2.542 7.627,-2.542 9.08,0c3.632,5.811 25.06,4.358 33.051,-2.179c6.901,-5.448 6.901,-5.811 -0.363,-3.269c-3.995,1.453 -11.259,3.632 -15.981,4.722l-9.08,1.816l7.99,-10.169c4.358,-5.448 7.99,-12.349 7.99,-14.891c0,-9.08 -10.533,-5.448 -19.976,7.264c-9.443,12.349 -19.249,18.523 -22.881,14.891c-1.09,-1.09 1.816,-5.811 6.537,-10.896c4.722,-5.085 7.264,-10.169 5.811,-11.622c-1.453,-1.816 -6.174,1.816 -10.169,7.264c-7.264,10.169 -27.603,22.881 -30.871,19.249c-1.09,-1.09 1.453,-6.174 5.811,-11.622c10.533,-13.438 9.443,-18.16 -1.816,-9.08c-13.801,10.896 -20.339,10.169 -17.433,-2.179c2.542,-9.08 2.179,-9.443 -9.806,-6.901c-6.537,1.09 -16.344,6.174 -21.428,10.896c-8.717,8.353 -22.518,16.707 -27.24,16.707c-1.453,0 1.816,-5.085 7.264,-11.259c5.085,-6.174 8.353,-12.349 7.264,-13.801c-1.453,-1.09 -5.085,1.09 -8.353,5.085c-14.528,17.433 -37.409,27.24 -29.782,12.712c2.179,-4.358 2.906,-11.259 1.453,-15.617c-2.542,-7.627 -2.906,-7.264 -11.985,3.632c-11.259,13.438 -36.683,26.15 -36.683,18.16c0,-2.542 5.811,-10.533 13.075,-17.433c21.792,-20.702 44.673,-57.748 26.513,-42.131Zm83.898,38.135c0,6.537 -11.985,18.886 -18.523,18.886c-9.443,0 -8.717,-5.448 2.542,-14.165c10.169,-7.99 15.981,-9.806 15.981,-4.722Zm-121.67,3.995c2.542,4.358 -30.145,23.971 -33.777,20.339c-3.269,-3.269 19.612,-23.608 26.513,-23.608c2.542,0 5.811,1.453 7.264,3.269Zm201.573,5.811c-2.542,3.269 -5.448,4.722 -6.537,3.632c-1.09,-0.726 0.363,-3.995 2.906,-7.264c2.542,-3.269 5.448,-4.722 6.537,-3.632c1.09,0.726 -0.363,3.995 -2.906,7.264Z" style="fill-rule:nonzero;"/><path d="M311.439,134.515c-3.995,4.722 -11.985,15.617 -17.797,24.697c-11.259,18.16 -22.518,28.692 -29.782,29.056c-3.269,0 -1.453,-4.358 4.722,-11.259c13.438,-16.344 7.627,-18.16 -7.264,-2.542c-11.622,11.985 -27.24,20.339 -27.24,14.528c0,-1.453 3.269,-6.537 7.264,-11.622c10.533,-13.438 8.717,-17.433 -2.542,-6.537c-17.797,16.344 -41.767,25.06 -28.329,10.169c3.632,-3.995 5.448,-8.353 3.995,-9.806c-1.453,-1.453 -6.174,1.453 -10.533,6.901c-8.353,9.443 -20.702,15.981 -20.702,10.533c0,-5.811 26.15,-26.15 31.235,-24.334c2.906,1.09 5.085,0.363 5.085,-1.453c0,-8.353 -16.707,-1.453 -35.593,15.254c-14.528,12.712 -30.871,13.075 -32.687,0.726c-1.09,-6.537 1.453,-7.99 13.438,-10.169c11.259,-1.816 15.981,-4.722 20.339,-13.075c10.896,-21.065 4.722,-31.235 -12.712,-21.792c-8.717,4.722 -50.847,54.479 -50.847,59.564c0.363,2.179 5.811,-2.542 12.712,-10.533c10.896,-12.349 12.712,-13.438 12.712,-6.901c0,10.896 9.08,17.07 21.792,15.254c5.811,-1.09 10.896,0 10.896,1.816c0,1.816 3.632,2.179 7.99,1.09c13.801,-3.995 39.588,-4.722 41.767,-1.09c1.09,1.816 6.174,2.179 11.622,0.726c15.617,-3.995 36.683,-4.722 38.862,-1.453c3.632,6.174 15.617,3.269 25.787,-5.811l10.169,-9.443l-13.438,7.99c-22.155,12.349 -23.971,4.358 -3.269,-13.801c17.433,-15.254 29.419,-31.961 29.419,-41.041c0,-6.537 -9.443,-3.995 -17.07,4.358Zm6.174,9.806c-3.995,7.99 -12.349,18.16 -18.886,22.881l-11.985,8.353l8.717,-12.712c8.717,-12.712 26.15,-32.687 28.329,-32.687c0.726,0 -2.179,6.537 -6.174,14.165Zm-130.75,-3.269c0,10.533 -15.981,25.424 -26.876,25.424c-8.717,0 -8.717,-0.363 -3.995,-9.806c5.811,-10.896 19.249,-22.518 26.513,-22.881c2.179,0 4.358,3.269 4.358,7.264Z" style="fill-rule:nonzero;"/><path d="M377.676,151.572c-14.891,15.617 -27.603,27.966 -28.329,27.603c-0.363,-0.726 2.179,-10.169 5.811,-21.065c3.995,-10.533 5.811,-21.065 4.722,-23.244c-1.453,-1.816 -3.269,0.363 -3.632,5.448c-0.726,4.722 -4.722,16.707 -8.353,26.15c-8.353,21.065 -8.353,21.065 -2.179,21.065c2.542,0 15.254,-10.896 28.329,-24.697c29.056,-30.145 38.135,-40.678 33.777,-40.315c-1.816,0.363 -15.254,13.438 -30.145,29.056Z" style="fill-rule:nonzero;"/><path d="M424.32,149.392c-24.334,26.15 -35.593,41.041 -32.324,43.946c0.726,1.09 6.537,-4.722 11.985,-12.712c5.811,-7.99 11.985,-14.891 13.438,-14.891c1.816,0 1.816,1.453 0.726,3.632c-1.09,1.816 -0.363,6.537 1.816,10.533c2.906,6.174 7.264,7.264 26.15,6.901c18.886,-0.363 23.608,-1.816 32.324,-9.806c8.717,-8.717 9.443,-10.169 4.722,-16.344c-4.358,-6.174 -6.174,-6.537 -13.801,-2.542c-4.722,2.542 -10.533,8.717 -12.712,13.438c-6.901,15.254 -33.051,16.344 -33.051,1.453c0,-5.448 2.542,-7.264 8.717,-7.264c20.702,0 41.041,-36.319 21.792,-39.225c-5.448,-0.726 -14.165,5.811 -29.782,22.881Zm34.867,-13.438c2.179,7.264 -19.612,26.15 -30.145,26.15l-9.443,0l9.806,-12.712c14.528,-18.886 26.15,-24.334 29.782,-13.438Zm18.886,27.603c0,1.09 -1.453,2.906 -3.632,3.995c-1.816,1.09 -3.632,0.363 -3.632,-1.453c0,-2.179 1.816,-3.995 3.632,-3.995c2.179,0 3.632,0.726 3.632,1.453Zm-9.443,15.617c-9.443,6.901 -13.075,5.811 -8.717,-2.542c2.179,-4.358 5.811,-6.174 9.806,-4.722c5.085,2.179 5.085,2.906 -1.09,7.264Z" style="fill-rule:nonzero;"/><path d="M623.35,137.044c0,1.816 1.816,2.542 3.632,1.453c2.179,-1.09 3.632,-2.906 3.632,-3.995c0,-0.726 -1.453,-1.453 -3.632,-1.453c-1.816,0 -3.632,1.816 -3.632,3.995Z" style="fill-rule:nonzero;"/><path d="M763.411,156.742c-7.495,1.843 -13.79,4.914 -14.689,7.064c-0.6,2.457 2.398,2.15 9.893,-1.229c14.689,-6.143 15.888,-3.993 3.897,6.45c-8.394,7.371 -8.993,8.6 -4.497,11.364c8.993,4.914 5.396,10.135 -12.591,18.735c-26.081,12.285 -38.372,31.942 -27.88,45.149c3.897,5.221 7.195,6.45 11.991,4.914c11.692,-3.993 23.083,-16.278 30.278,-33.17c3.897,-8.907 8.094,-18.735 9.593,-21.806c1.799,-3.071 1.499,-5.221 0,-5.221c-6.295,0 -4.797,-14.128 2.098,-22.114c9.893,-11.364 7.495,-14.128 -8.094,-10.135Zm-3.897,52.213c-3.897,12.592 -18.886,31.942 -27.58,35.32c-13.79,5.221 -18.586,-11.364 -7.495,-25.799c6.595,-8.6 25.182,-19.964 33.276,-20.271c4.197,0 4.497,1.536 1.799,10.75Z" style="fill-rule:nonzero;"/><path d="M375.09,183.896c0,1.816 1.816,3.632 3.632,3.632c2.179,0 3.632,-1.816 3.632,-3.632c0,-2.179 -1.453,-3.632 -3.632,-3.632c-1.816,0 -3.632,1.453 -3.632,3.632Z" style="fill-rule:nonzero;"/></g></svg>