<svg width="800" height="600" xmlns="http://www.w3.org/2000/svg">
 <g>
  <title>Layer 1</title>
  <path id="svg_1" d="m181.59999,344.4" opacity="NaN" stroke="#000" fill="#fff"/>
  <polyline stroke-linecap="round" id="svg_2" points="478,394 " opacity="NaN" stroke="#000" fill="none"/>
  <polyline stroke-linecap="round" id="svg_3" points="478,370 " opacity="NaN" stroke="#000" fill="none"/>
  <path fill="none" id="svg_23" d="m236.59998,332.26586c1.79605,-4.95814 6.02359,-13.81201 14.36843,-26.44339c12.68995,-19.20844 25.76795,-39.40547 37.71713,-64.45578c13.27155,-27.82249 24.30241,-50.82365 32.32897,-67.76117c6.13387,-12.94364 7.87906,-21.34908 12.57238,-23.13797c1.65935,-0.63248 1.89389,0.14912 3.59211,8.26356c3.6581,17.47907 14.7127,39.59645 21.55264,69.41389c7.56587,32.98207 16.39809,67.20251 25.14475,97.51002c7.05179,24.4347 11.52027,40.63323 8.98027,42.97052c-1.26998,1.16862 -3.66797,-1.61312 -10.77632,-13.2217c-9.0775,-14.82438 -18.28853,-30.92672 -34.12502,-46.27594c-14.89089,-14.43273 -26.2339,-24.04533 -35.92107,-29.74882c-3.38289,-1.99175 -0.04067,1.81043 7.18421,3.30542c8.93499,1.84881 13.53311,1.13911 16.16448,-1.65271c3.7213,-3.94827 1.79605,-6.61085 1.79605,-8.26356c0,-1.65271 0.40001,-2.10889 7.18421,3.30542c3.83772,3.06277 7.73107,5.83528 14.36843,3.30542c4.69332,-1.78889 10.35236,-4.17783 14.36843,-11.56899c1.60646,-2.95645 1.79605,-3.30542 3.59211,-3.30542c1.79605,0 3.72881,2.67295 5.38816,3.30542c2.34663,0.89445 3.59211,1.65271 5.38816,1.65271c0,0 3.41759,-2.02325 7.18421,-3.30542c6.94535,-2.3642 14.36843,-3.30542 21.55264,-3.30542c1.79605,0 5.38816,0 7.18421,0c0,0 2.32213,-1.16865 3.59211,0c1.26998,1.16865 1.79605,1.65271 3.59211,0c7.18421,-6.61085 10.40624,-15.01891 14.36843,-23.13797c3.29043,-6.74251 7.18421,-9.91627 10.77632,-3.30542c3.59211,6.61085 11.29462,14.65672 14.36843,21.48526c2.17348,4.82851 3.59211,4.95814 3.59211,3.30542c0,-1.65271 0,-3.30542 0,-4.95814c0,0 3.59211,-3.30542 7.18421,-6.61085c0,0 -0.55222,-1.96012 1.79605,-4.95814c2.97033,-3.79221 6.63172,-7.28998 12.57238,-14.87441c2.34828,-2.99801 5.69697,-7.5374 7.18421,-6.61085c8.00912,4.98966 9.02719,21.46988 17.96054,44.62323c10.83327,28.07755 21.53324,60.63458 25.14475,92.55188c3.16206,27.94505 4.86071,56.97444 -5.38816,62.80306c-6.11129,3.47555 -19.17225,-8.44191 -30.53291,-31.40153c-12.47613,-25.2139 -15.26552,-51.17784 -16.16448,-69.41391c-0.6511,-13.20813 1.79605,-21.48526 1.79605,-24.79068l1.79605,0l1.79605,3.30542l0,1.65271" stroke-width="7" stroke="#000"/>
 </g>

</svg>